# xmcd
#
# Track frame offsets: 
#        150
#        25877
#        47835
#        73200
#        95957
#        115260
#        136722
#        164575
#        186187
#        209195
#
# Disc length: 3086 seconds
#
# Revision: 2
# Processed by: cddbd v1.5.2PL0 Copyright (c) Steve Scherf et al.
# Submitted via: ExactAudioCopy v1.0b6
#
DISCID=9d0c0c0a
DTITLE=松田博幸 - TWO OF US
DYEAR=1992
DGENRE=JPop
TTITLE0=Moving Night
TTITLE1=逃げられないほどHeartbreak
TTITLE2=Monochrome Melody
TTITLE3=Hello
TTITLE4=Sudden Beat
TTITLE5=Believin'
TTITLE6=Stop Your Crying
TTITLE7=きっと夜が迎えにくる
TTITLE8=Lonely Night
TTITLE9=ふたり見た夢 ～Two of us～
EXTD=
EXTT0=
EXTT1=
EXTT2=
EXTT3=
EXTT4=
EXTT5=
EXTT6=
EXTT7=
EXTT8=
EXTT9=
PLAYORDER=
